<?xml version="1.0" encoding="UTF-8" standalone="no"?>
<!-- Created with Inkscape (http://www.inkscape.org/) -->

<svg
   width="210mm"
   height="297mm"
   viewBox="0 0 210 297"
   version="1.1"
   id="svg5"
   xml:space="preserve"
   sodipodi:docname="java-logo.svg"
   inkscape:version="1.2.2 (732a01da63, 2022-12-09)"
   inkscape:export-filename="java-logo-.svg"
   inkscape:export-xdpi="96"
   inkscape:export-ydpi="96"
   xmlns:inkscape="http://www.inkscape.org/namespaces/inkscape"
   xmlns:sodipodi="http://sodipodi.sourceforge.net/DTD/sodipodi-0.dtd"
   xmlns="http://www.w3.org/2000/svg"
   xmlns:svg="http://www.w3.org/2000/svg"><sodipodi:namedview
     id="namedview7"
     pagecolor="#ffffff"
     bordercolor="#000000"
     borderopacity="0.25"
     inkscape:showpageshadow="2"
     inkscape:pageopacity="0.0"
     inkscape:pagecheckerboard="0"
     inkscape:deskcolor="#d1d1d1"
     inkscape:document-units="mm"
     showgrid="false"
     inkscape:zoom="1.5215769"
     inkscape:cx="175.14725"
     inkscape:cy="394.98497"
     inkscape:window-width="1920"
     inkscape:window-height="1009"
     inkscape:window-x="1912"
     inkscape:window-y="-8"
     inkscape:window-maximized="1"
     inkscape:current-layer="layer1" /><defs
     id="defs2"><inkscape:path-effect
       effect="skeletal"
       id="path-effect3454"
       is_visible="true"
       lpeversion="1"
       pattern="m 117.89583,167.27969 a 50.079624,29.039228 0 0 0 -26.270749,4.32273 50.079624,29.039228 0 0 0 27.314089,4.71961 50.079624,29.039228 0 0 0 26.29711,-4.33307 50.079624,29.039228 0 0 0 -27.34045,-4.70927 z"
       copytype="single_stretched"
       prop_scale="0.11086502"
       scale_y_rel="false"
       spacing="0"
       normal_offset="0"
       tang_offset="0"
       prop_units="false"
       vertical_pattern="false"
       hide_knot="false"
       fuse_tolerance="0" /><inkscape:path-effect
       effect="skeletal"
       id="path-effect3437"
       is_visible="true"
       lpeversion="1"
       pattern="m 117.89583,167.27969 a 50.079624,29.039228 0 0 0 -26.270749,4.32273 50.079624,29.039228 0 0 0 27.314089,4.71961 50.079624,29.039228 0 0 0 26.29711,-4.33307 50.079624,29.039228 0 0 0 -27.34045,-4.70927 z"
       copytype="single_stretched"
       prop_scale="0.11892624"
       scale_y_rel="false"
       spacing="0"
       normal_offset="0"
       tang_offset="0"
       prop_units="false"
       vertical_pattern="false"
       hide_knot="false"
       fuse_tolerance="0" /><inkscape:path-effect
       effect="skeletal"
       id="path-effect3420"
       is_visible="true"
       lpeversion="1"
       pattern="m 117.89583,167.27969 a 50.079624,29.039228 0 0 0 -26.270749,4.32273 50.079624,29.039228 0 0 0 27.314089,4.71961 50.079624,29.039228 0 0 0 26.29711,-4.33307 50.079624,29.039228 0 0 0 -27.34045,-4.70927 z"
       copytype="single_stretched"
       prop_scale="0.028816439"
       scale_y_rel="false"
       spacing="0"
       normal_offset="0"
       tang_offset="0"
       prop_units="false"
       vertical_pattern="false"
       hide_knot="false"
       fuse_tolerance="0" /><inkscape:path-effect
       effect="skeletal"
       id="path-effect3403"
       is_visible="true"
       lpeversion="1"
       pattern="m 117.89583,167.27969 a 50.079624,29.039228 0 0 0 -26.270749,4.32273 50.079624,29.039228 0 0 0 27.314089,4.71961 50.079624,29.039228 0 0 0 26.29711,-4.33307 50.079624,29.039228 0 0 0 -27.34045,-4.70927 z"
       copytype="single_stretched"
       prop_scale="0.044830096"
       scale_y_rel="false"
       spacing="0"
       normal_offset="0"
       tang_offset="0"
       prop_units="false"
       vertical_pattern="false"
       hide_knot="false"
       fuse_tolerance="0" /><inkscape:path-effect
       effect="skeletal"
       id="path-effect3386"
       is_visible="true"
       lpeversion="1"
       pattern="m 117.89583,167.27969 a 50.079624,29.039228 0 0 0 -26.270749,4.32273 50.079624,29.039228 0 0 0 27.314089,4.71961 50.079624,29.039228 0 0 0 26.29711,-4.33307 50.079624,29.039228 0 0 0 -27.34045,-4.70927 z"
       copytype="single_stretched"
       prop_scale="0.096166308"
       scale_y_rel="false"
       spacing="0"
       normal_offset="0"
       tang_offset="0"
       prop_units="false"
       vertical_pattern="false"
       hide_knot="false"
       fuse_tolerance="0" /><inkscape:path-effect
       effect="skeletal"
       id="path-effect3369"
       is_visible="true"
       lpeversion="1"
       pattern="m 117.89583,167.27969 a 50.079624,29.039228 0 0 0 -26.270749,4.32273 50.079624,29.039228 0 0 0 27.314089,4.71961 50.079624,29.039228 0 0 0 26.29711,-4.33307 50.079624,29.039228 0 0 0 -27.34045,-4.70927 z"
       copytype="single_stretched"
       prop_scale="0.028816439"
       scale_y_rel="false"
       spacing="0"
       normal_offset="0"
       tang_offset="0"
       prop_units="false"
       vertical_pattern="false"
       hide_knot="false"
       fuse_tolerance="0" /><inkscape:path-effect
       effect="skeletal"
       id="path-effect3352"
       is_visible="true"
       lpeversion="1"
       pattern="m 117.89583,167.27969 a 50.079624,29.039228 0 0 0 -26.270749,4.32273 50.079624,29.039228 0 0 0 27.314089,4.71961 50.079624,29.039228 0 0 0 26.29711,-4.33307 50.079624,29.039228 0 0 0 -27.34045,-4.70927 z"
       copytype="single_stretched"
       prop_scale="0.028816439"
       scale_y_rel="false"
       spacing="0"
       normal_offset="0"
       tang_offset="0"
       prop_units="false"
       vertical_pattern="false"
       hide_knot="false"
       fuse_tolerance="0" /><inkscape:path-effect
       effect="skeletal"
       id="path-effect3185"
       is_visible="true"
       lpeversion="1"
       pattern="m 117.89583,167.27969 a 50.079624,29.039228 0 0 0 -26.270749,4.32273 50.079624,29.039228 0 0 0 27.314089,4.71961 50.079624,29.039228 0 0 0 26.29711,-4.33307 50.079624,29.039228 0 0 0 -27.34045,-4.70927 z"
       copytype="single_stretched"
       prop_scale="0.028816439"
       scale_y_rel="false"
       spacing="0"
       normal_offset="0"
       tang_offset="0"
       prop_units="false"
       vertical_pattern="false"
       hide_knot="false"
       fuse_tolerance="0" /><inkscape:path-effect
       effect="skeletal"
       id="path-effect1062"
       is_visible="true"
       lpeversion="1"
       pattern="m 117.89583,167.27969 a 50.079624,29.039228 0 0 0 -26.270749,4.32273 50.079624,29.039228 0 0 0 27.314089,4.71961 50.079624,29.039228 0 0 0 26.29711,-4.33307 50.079624,29.039228 0 0 0 -27.34045,-4.70927 z"
       copytype="single_stretched"
       prop_scale="0.24910147"
       scale_y_rel="false"
       spacing="0"
       normal_offset="0"
       tang_offset="0"
       prop_units="false"
       vertical_pattern="false"
       hide_knot="false"
       fuse_tolerance="0" /><inkscape:path-effect
       effect="skeletal"
       id="path-effect991"
       is_visible="true"
       lpeversion="1"
       pattern="m 117.89583,167.27969 a 50.079624,29.039228 0 0 0 -26.270749,4.32273 50.079624,29.039228 0 0 0 27.314089,4.71961 50.079624,29.039228 0 0 0 26.29711,-4.33307 50.079624,29.039228 0 0 0 -27.34045,-4.70927 z"
       copytype="single_stretched"
       prop_scale="0.24910147"
       scale_y_rel="false"
       spacing="0"
       normal_offset="0"
       tang_offset="0"
       prop_units="false"
       vertical_pattern="false"
       hide_knot="false"
       fuse_tolerance="0" /></defs><g
     inkscape:label="Ebene 1"
     inkscape:groupmode="layer"
     id="layer1"><path
       d="m 77.71862,131.95461 c -0.289047,-0.32921 -0.521202,-0.65306 -0.515898,-0.71967 0.0053,-0.0666 0.373339,-0.39783 0.817856,-0.73605 1.501841,-1.14271 1.451742,-0.81275 1.507116,-9.92606 l 0.04862,-8.001 h 1.272693 1.272692 l -0.05131,8.17034 -0.05131,8.17033 -0.452513,0.85741 c -0.510553,0.96739 -1.490411,1.92402 -2.496444,2.43726 -0.373019,0.1903 -0.711459,0.346 -0.752089,0.346 -0.04063,0 -0.310364,-0.26936 -0.599412,-0.59856 z m 8.616022,-3.44381 c -1.601272,-0.33549 -2.410564,-1.40323 -2.410564,-3.18038 0,-1.99423 1.147345,-3.19489 3.536769,-3.70113 0.639228,-0.13544 1.649143,-0.24757 2.244254,-0.24918 l 1.082025,-0.003 -0.09748,-0.94445 c -0.111519,-1.08052 -0.457926,-1.7089 -1.07045,-1.94178 -0.633976,-0.24104 -2.562151,-0.19192 -3.620787,0.0922 -0.512234,0.13749 -0.984902,0.25089 -1.050375,0.25199 -0.15867,0.003 -0.484745,-1.19767 -0.374015,-1.37683 0.0478,-0.0774 0.635494,-0.31197 1.305985,-0.52137 1.760852,-0.54996 4.281614,-0.54541 5.408889,0.01 0.942759,0.46428 1.404421,1.04836 1.64148,2.07672 0.09447,0.40979 0.17362,2.66913 0.175895,5.02074 l 0.0041,4.27567 h -1.016 -1.016 v -0.61332 c 0,-0.60622 -0.0044,-0.61008 -0.381,-0.33293 -1.259207,0.92668 -3.089936,1.40389 -4.36277,1.13721 z m 3.606705,-2.32947 0.713731,-0.50098 0.04918,-1.38959 0.04918,-1.38959 -1.065181,0.001 c -1.344136,0.001 -2.184753,0.233 -2.837924,0.78261 -0.451275,0.37972 -0.512607,0.53742 -0.507873,1.30583 0.0084,1.36015 0.56567,1.85108 1.990217,1.75323 0.650955,-0.0447 1.089518,-0.19805 1.608667,-0.56245 z m 18.010453,2.28981 c -1.43852,-0.33799 -2.30328,-1.50738 -2.30328,-3.11464 0,-2.36183 1.80727,-3.72935 5.19956,-3.93441 l 1.56634,-0.0947 V 120.404 c 0,-0.82435 -0.0618,-0.98514 -0.57574,-1.49912 -0.5494,-0.5494 -0.63217,-0.57573 -1.80951,-0.57573 -0.67858,0 -1.71997,0.12193 -2.3142,0.27096 -0.59423,0.14902 -1.10996,0.24141 -1.14607,0.2053 -0.0361,-0.0361 -0.11484,-0.37328 -0.17496,-0.74927 l -0.10932,-0.68363 1.32923,-0.40666 c 1.01831,-0.31154 1.72532,-0.4076 3.02257,-0.41068 1.95979,-0.005 2.68178,0.26721 3.54697,1.33561 l 0.51703,0.63846 0.0519,4.89528 0.0519,4.89529 h -0.92203 c -0.91519,0 -0.92283,-0.004 -1.03044,-0.57791 l -0.10842,-0.57792 -0.83613,0.56268 c -1.21566,0.81808 -2.56285,1.07164 -3.95534,0.74446 z m 3.57362,-2.18832 0.889,-0.50984 v -1.45978 -1.45977 l -1.40769,0.0878 c -0.80864,0.0504 -1.63612,0.20595 -1.94447,0.3654 -0.95406,0.49336 -1.3053,1.65863 -0.79651,2.64251 0.3362,0.65014 0.69148,0.83565 1.60867,0.83993 0.54219,0.002 1.01844,-0.1435 1.651,-0.50627 z m -13.737912,1.23268 c -0.21688,-0.66888 -2.968664,-9.60899 -3.259849,-10.59071 -0.08204,-0.27659 0.02773,-0.29926 1.22979,-0.254 l 1.319869,0.0497 0.98219,3.13267 c 0.540203,1.72297 1.130113,3.73248 1.310913,4.46559 0.180801,0.73311 0.364471,1.36867 0.408161,1.41235 0.222868,0.22287 1.732948,-5.32835 2.140198,-7.86761 l 0.1969,-1.22766 h 1.26237 1.26238 l -0.11184,0.635 c -0.45652,2.59213 -2.03645,7.82014 -3.09597,10.24466 l -0.3515,0.80434 h -1.516408 -1.516414 z"
       style="fill:#ff7918;fill-opacity:1;stroke:none;stroke-width:0.169333;stroke-opacity:0.9"
       id="path3603" /><g
       id="g5174"
       transform="translate(0,0.48683743)"><g
         id="g3593"
         style="fill:#7e78ff;fill-opacity:1"
         transform="matrix(0.48542801,0,0,0.48542801,37.103811,67.052979)"><path
           style="fill:#7e78ff;fill-opacity:1;stroke-width:0.169333"
           d="m 59.394852,127.03395 c -3.30513,-0.27547 -4.048863,-1.23833 -4.197224,-1.75573 -0.06066,-0.21152 0.449733,-0.99556 0.711985,-1.09527 0.425953,-0.16194 0.466306,-0.14816 0.378258,0.12926 -0.146861,0.46271 0.466798,0.6677 2.654918,0.88684 1.883204,0.18861 2.552001,0.16325 5.379383,-0.20392 1.429335,-0.18562 1.4468,-0.18334 2.514084,0.32875 l 1.074752,0.51568 -1.328752,0.4182 c -2.227727,0.70113 -4.780395,0.9768 -7.187404,0.77619 z m -2.409036,-4.40866 c -1.341396,-0.17241 -2.964285,-0.77813 -3.23023,-1.20562 -0.249643,-0.4013 0.0086,-0.78806 0.846155,-1.26722 0.814494,-0.46597 0.977528,-0.47817 0.751722,-0.0563 -0.238772,0.44615 -0.230576,0.4751 0.217593,0.76875 0.990461,0.64898 6.503096,0.66833 10.19045,0.0358 1.184906,-0.20326 1.185597,-0.20315 1.92027,0.30597 l 0.734937,0.50931 -1.242937,0.29533 c -3.060348,0.72717 -7.313131,0.98346 -10.18796,0.61395 z m -1.835076,-4.05137 c -2.996841,-0.21533 -4.544568,-0.62868 -4.544568,-1.21372 0,-0.61644 3.812625,-1.99932 5.488087,-1.99059 0.646868,0.003 0.601001,0.0346 -0.694919,0.47315 -1.590431,0.53823 -2.220117,0.98353 -1.876575,1.32707 0.536429,0.53643 4.70149,0.71521 9.190741,0.39451 2.323446,-0.16599 6.103305,-0.59996 6.773333,-0.77766 0.186267,-0.0494 -0.06077,0.14533 -0.548962,0.43273 -1.110257,0.6536 -3.668225,1.12053 -7.465757,1.36279 -2.908148,0.18552 -3.637511,0.18457 -6.32138,-0.008 z"
           id="path3590"
           sodipodi:nodetypes="ssssssscsscsssssscscccscsssssscc" /></g><path
         d="m 67.982461,122.95529 c 0.396242,-0.56215 0.377724,-0.97048 -0.07196,-1.58657 -0.619217,-0.84838 -0.788219,-1.23827 -0.795266,-1.83473 -0.0053,-0.45209 0.03286,-0.60385 0.248277,-0.98638 0.30624,-0.54382 0.968737,-1.10372 1.835342,-1.55111 0.621765,-0.32099 1.810198,-0.7822 1.867606,-0.72479 0.01669,0.0167 -0.275094,0.21812 -0.648409,0.44761 -0.879377,0.5406 -1.729697,1.24984 -2.01456,1.68029 -0.309524,0.46772 -0.30649,0.96122 0.009,1.46317 0.127866,0.20345 0.35849,0.57171 0.512499,0.81836 0.30607,0.49019 0.350467,0.8267 0.167002,1.26579 -0.149792,0.35851 -0.568546,0.82707 -1.011538,1.13186 l -0.359261,0.24717 z m -1.92339,-1.27865 c -1.093445,-1.13413 -1.457217,-1.73763 -1.457217,-2.41752 0,-0.80896 0.426653,-1.35431 2.140731,-2.73632 1.20815,-0.9741 1.711061,-1.50787 2.027154,-2.15155 0.200536,-0.40837 0.229769,-0.56323 0.229769,-1.2172 0,-0.82985 0.07204,-0.8404 0.331048,-0.0486 0.194823,0.59564 0.109252,1.17242 -0.29324,1.97658 -0.340246,0.67979 -0.937208,1.34574 -2.316189,2.58384 -0.852596,0.7655 -1.144627,1.27042 -1.144627,1.97905 0,0.56053 0.16809,0.95565 0.814241,1.91403 0.499058,0.74021 0.710578,1.09854 0.648461,1.09854 -0.01893,0 -0.459985,-0.44142 -0.980131,-0.98092 z"
         style="fill:#f03f0f;fill-opacity:1;stroke-width:0.0821989"
         id="path3626" /><path
         d="m 72.109627,126.30411 c 1.138547,-0.68316 1.813883,-1.55064 1.681827,-2.16032 -0.137587,-0.6352 -0.691554,-1.02698 -1.328663,-0.93966 -0.463227,0.0635 -0.391687,-0.063 0.106593,-0.18846 1.314621,-0.33102 2.406774,0.77563 1.847455,1.87198 -0.322136,0.63144 -1.127566,1.21026 -2.195234,1.57759 -0.684804,0.23561 -0.710807,0.19819 -0.111978,-0.16113 z"
         style="fill:#6a1be8;fill-opacity:1;stroke-width:0.0821989"
         id="path4385" /><path
         d="m 65.063591,131.59844 c -1.337491,-0.0537 -2.395527,-0.19912 -2.83587,-0.38987 -0.180727,-0.0783 -0.165865,-0.0838 0.123298,-0.0462 3.703353,0.48292 8.653069,-0.1423 10.037792,-0.76051 0.574135,-0.25633 1.054709,-0.42204 0.733732,-0.0406 -0.767633,0.91228 -3.956016,1.40172 -8.058952,1.23709 z m -1.221015,-1.04351 c -1.205335,-0.0655 -2.96275,-0.2658 -3.627629,-0.41354 -0.435583,-0.0968 -0.739792,-0.27727 -0.739792,-0.43889 0,-0.46761 2.332917,-1.33442 2.835076,-1.0534 0.109813,0.0614 0.04639,0.0903 -0.284645,0.12952 -0.234267,0.0278 -0.629383,0.14359 -0.878036,0.25743 -0.758053,0.34704 -0.516657,0.56162 0.957978,0.85154 1.035707,0.20363 6.260152,0.19745 7.720812,-0.009 1.812914,-0.25639 2.352507,-0.35518 2.352507,-0.76058 0,-0.1615 0.197405,-0.4039 0.318269,-0.28307 0.139246,0.15418 -8.21e-4,0.56876 -0.556357,0.8287 -1.020293,0.47743 -2.630396,0.77099 -4.928446,0.89856 -1.539199,0.0855 -1.461146,0.0856 -3.169737,-0.007 z"
         style="fill:#1106e7;fill-opacity:1;stroke-width:0.0821989"
         id="path4408" /></g></g></svg>
